<?xml version="1.0" ?><svg id="Layer_1" style="enable-background:new 0 0 64 64;" version="1.1" viewBox="0 0 64 64" xml:space="preserve" xmlns="http://www.w3.org/2000/svg" xmlns:xlink="http://www.w3.org/1999/xlink"><style type="text/css">
	.st0{fill:#57CEF3;}
	.st1{fill:#1D70F2;}
	.st2{fill-rule:evenodd;clip-rule:evenodd;fill:#314A52;}
	.st3{fill:#FFFFFF;}
	.st4{fill:#ACBDC5;}
</style><g id="App_Store"><path class="st0" d="M3,13C3,7.5,7.5,3,13,3h38c5.5,0,10,4.5,10,10v38c0,5.5-4.5,10-10,10H13C7.5,61,3,56.5,3,51V13z"/><path class="st1" d="M21.2,0L21.2,0c-3.4,0-6,0-8,0.2C11,0.3,9.3,0.7,7.6,1.5C5,2.9,2.9,5,1.5,7.6C0.7,9.3,0.3,11,0.2,13.2   C0,15.2,0,17.8,0,21.1v21.8c0,3.3,0,5.9,0.2,8c0.2,2.1,0.5,3.9,1.4,5.5C2.9,59,5,61.1,7.6,62.5c1.6,0.8,3.4,1.2,5.5,1.4   c2.1,0.2,4.7,0.2,8,0.2h21.7c1.2,0,2.2,0,3.2,0l0-3h8l7-7V20h-1c0,12.2-7.7,22.8-19,28.2c-3.5,2.3-9.8,3.8-17,3.8   c-11,0-19.9-3.6-20-7.9c0-0.4,0-0.8,0-1.3V21.2c0-3.4,0-5.8,0.2-7.7c0.2-1.9,0.4-3.1,0.9-4C6,7.6,7.6,6,9.5,5.1   c1-0.5,2.1-0.8,4-0.9C15.4,4,17.8,4,21.2,4V0z"/><path class="st2" d="M50.5,4.2C48.6,4,46.2,4,42.8,4H21.2c-0.4,0-0.8,0-1.2,0l0-4c0.4,0,0.8,0,1.2,0h21.7c3.3,0,5.9,0,8,0.2   c2.1,0.2,3.9,0.5,5.5,1.4C59,2.9,61.1,5,62.5,7.6c0.8,1.6,1.2,3.4,1.4,5.5c0.2,2.1,0.2,4.7,0.2,8v21.8c0,3.3,0,5.9-0.2,8   c-0.2,2.1-0.5,3.9-1.4,5.5c-1.3,2.6-3.5,4.8-6.1,6.1c-1.5,0.8-3.2,1.1-5.1,1.3C49.3,64,46.9,64,44,64l0-4c3,0,5.1,0,6.9-0.2   c1.7-0.2,2.8-0.4,3.7-0.9c1.9-1,3.4-2.5,4.4-4.4c0.5-1,0.8-2.1,0.9-4c0.2-1.9,0.2-4.3,0.2-7.7V21.2c0-3.4,0-5.8-0.2-7.7   c-0.2-1.9-0.4-3.1-0.9-4c-1-1.9-2.5-3.4-4.4-4.4C53.6,4.6,52.4,4.3,50.5,4.2z"/><path class="st3" d="M13.4,51.5c-1.4-0.9-1.8-2.8-0.9-4.2l2.6-4.1c2.2-0.7,4.6-0.1,6.2,1.5l-3.8,5.8C16.6,52,14.8,52.4,13.4,51.5z    M27,36l12.5-19.4c0.9-1.4,0.5-3.2-0.9-4.2c-1.4-0.9-3.2-0.5-4.1,0.9L32,17.2l-2.5-3.8c-0.9-1.4-2.8-1.8-4.1-0.9s-1.8,2.8-0.9,4.2   l3.9,6.1L19.8,36H11c-1.7,0-3,1.3-3,3c0,1.7,1.3,3,3,3h26.5c0.3-0.6,0.5-1.3,0.5-2c0-2.2-1.8-4-4-4H27z M49,43.5L48,42h3   c1.7,0,6.1-3.4,4-5.2c-0.5-0.5-1.2-0.8-2-0.8h-8.8l-8-12.4c-2.3,2.5-2.8,6.3-1.1,9.4L44.2,47C49.1,54.6,53.8,50.9,49,43.5z"/><path class="st4" d="M56,39c0,1.7-1.3,3-3,3h-2.9c1.8-1.6,3.3-3.5,4.6-5.4C55.5,37.1,56,38,56,39z M48.8,43.2   c-1.5,1.3-3.1,2.4-4.9,3.5l2.6,4c0.9,1.4,2.8,1.8,4.1,0.9s1.8-2.8,0.9-4.2L48.8,43.2z M16.7,51.5c-1.5-0.2-3-0.6-4.3-0.9   c0.2,0.4,0.5,0.7,1,1C14.4,52.2,15.7,52.1,16.7,51.5z"/></g></svg>